# xmcd
#
# Track frame offsets:
#	150
#	17515
#	29143
#	46881
#	68334
#	80248
#	92736
#	110823
#	124843
#	147313
#
# Disc length: 2234 seconds
#
# Revision: 0
# Processed by: cddbd v1.5.2PL0 Copyright (c) Steve Scherf et al.
# Submitted via: EasyCDDAExtractor 12.1.0.1
#
DISCID=8908b80a
DTITLE=Artistes varies - Je me souviens [CD 2)
DYEAR=2009
DGENRE=Chanson quebecoise
TTITLE0=Calvaire
TTITLE1=Ginette
TTITLE2=La poule a Colin
TTITLE3=Mefiez-vous du grand amour
TTITLE4=Yes a pichou
TTITLE5=Entr' deux joints
TTITLE6=Sous les cheminees
TTITLE7=Chinatown
TTITLE8=Femme ou fille
TTITLE9=Vivre dans la nuit
EXTD=
EXTT0=
EXTT1=
EXTT2=
EXTT3=
EXTT4=
EXTT5=
EXTT6=
EXTT7=
EXTT8=
EXTT9=
PLAYORDER=
